<?xml version="1.0" encoding="UTF-8" standalone="no"?>
<!DOCTYPE svg PUBLIC "-//W3C//DTD SVG 1.1//EN" "http://www.w3.org/Graphics/SVG/1.1/DTD/svg11.dtd">
<svg version="1.1" xmlns="http://www.w3.org/2000/svg" xmlns:xlink="http://www.w3.org/1999/xlink" preserveAspectRatio="xMidYMid meet" viewBox="0 0 640 640" width="640" height="640"><defs><path d="M416.14 503.77L379.89 467.26L546.23 302.09L376.81 131.45L413.59 94.93L619.27 302.09L416.14 503.77ZM283.48 151.6L319.74 188.12L210.46 296.61L320.27 407.21L283.49 443.73L311.6 472.05L279.65 503.77L251.53 475.45L283.49 443.73L137.42 296.61L283.48 151.6L251.98 119.87L277.09 94.93L308.59 126.66L283.48 151.6ZM344.85 163.18L482.77 302.09L348.38 435.53L379.89 467.26L343.1 503.77L311.6 472.05L348.38 435.53L320.27 407.21L429.54 298.71L319.74 188.12L344.85 163.18L308.59 126.66L340.55 94.93L376.81 131.45L344.85 163.18ZM73.96 296.61L251.53 475.45L226.41 500.39L20.73 293.23L223.86 91.55L251.98 119.87L73.96 296.61Z" id="d96dnMxRx9"></path></defs><g><g><g><use xlink:href="#d96dnMxRx9" opacity="1" fill="#ffffff" fill-opacity="1"></use><g><use xlink:href="#d96dnMxRx9" opacity="1" fill-opacity="0" stroke="#ffcc00" stroke-width="10" stroke-opacity="1"></use></g></g></g></g></svg>